# xmcd
#
# Track frame offsets:
#	183
#	22458
#	45230
#	70143
#	80045
#	95970
#	103180
#	116833
#	129070
#	145108
#	158233
#	165775
#	172863
#	184395
#	189848
#	198995
#	211945
#	219828
#	225328
#
# Disc length: 3167 seconds
#
# Revision: 15
# Processed by: cddbd v1.5.2PL0 Copyright (c) Steve Scherf et al.
# Submitted via: audiograbber 1.82.02
#
DISCID=fd0c5d13
DTITLE=Zoltan Kocsis - Ultimate Chopin CD5 - The Waltzes
DYEAR=2006
DGENRE=Classical
TTITLE0=Waltz  in Eb major Op.18, "Grande Valse Brillante"
TTITLE1=Waltz  in Ab major Op.34, No.1, "Valse Brillante"
TTITLE2=Waltz  in A minor Op.34, No.2, ''Valse Brillante''
TTITLE3=Waltz  in F major Op.34, No.3, ''Valse Brillante''
TTITLE4=Waltz  in Ab major Op.42, ''Grande Valse''
TTITLE5=Waltz  in Db major Op.64, No.1, ''Minute''
TTITLE6=Waltz  in C# minor Op.64, No.2
TTITLE7=Waltz  in Ab major Op.64, No.3
TTITLE8=Waltz  in Ab major Op.69, No.1, ''Farewell''
TTITLE9=Waltz  in B minor Op.69, No.2
TTITLE10=Waltz  in Gb major Op.70, No.1
TTITLE11=Waltz  in F minor Op.70, No.2
TTITLE12=Waltz  in Db major Op.70, No.3
TTITLE13=Waltz  in E minor, Op. posth.
TTITLE14=Waltz  in E major, Op. posth.
TTITLE15=Waltz  in Ab major, Op. posth.
TTITLE16=Waltz  in Eb major, Op. posth. (i)
TTITLE17=Waltz  in Eb major, Op. posth. (ii)
TTITLE18=Waltz  in A minor, Op. posth.
EXTD=Original recordings: 1983
EXTT0=No. 1 in E flat "Grande valse brillant" Op. 18, B. 62
EXTT1=No. 2 in A flat "Valse brillante" Op. 34/1, B. 94
EXTT2=No. 3 in A minor, Op. 34/2, B.64
EXTT3=No. 4 in F "Valse brillante" Op. 34/3, B.118
EXTT4=No. 5 in A flat "Grande valse" Op. 42, B.131
EXTT5=No. 6 in D flat, "Minute" Waltz, Op. 64/1, B. 164
EXTT6=No. 7 in C sharp minor, Op. 64/2, B. 164
EXTT7=No. 8 in A flat, O[. 64/3, B. 164
EXTT8=No. 9 in A flat, "L'Adieu", Op., 69/1, B. 95
EXTT9=No. 10 B minor, Op. 69/2, B. 35
EXTT10=No. 11 in G flat, Op. 70/1, B. 92
EXTT11=No. 12 in F minor/A flat, Op. 70/2, B. 138
EXTT12=No. 13 in D flat, Op. 70/3, B. 40
EXTT13=No. 16 in A flat,, Op. posth., B. 21
EXTT14=No. 15 in E, Op. posth., B. 44
EXTT15=No. 14 in E minor, Op. posth., B. 56
EXTT16=No. 19 in A minor, Op. posth., B. 56
EXTT17=No. 18 in E flat, Op. posthl, B. 133
EXTT18=No. 17 in E flat, Op posth., B. 46
PLAYORDER=
